<svg width="248" height="43" viewBox="0 0 248 43" fill="none" xmlns="http://www.w3.org/2000/svg">
<path d="M18.9376 33.8151V10.4551H21.8816L24.7936 18.8391C25.007 19.3938 25.2096 19.9805 25.4016 20.5991C25.5936 21.1965 25.743 21.6765 25.8496 22.0391C25.9563 21.6765 26.1056 21.1965 26.2976 20.5991C26.4896 19.9805 26.671 19.3938 26.8416 18.8391L29.7216 10.4551H32.6336V33.8151H30.5856V21.9751C30.5856 21.1218 30.5963 20.2151 30.6176 19.2551C30.6603 18.2738 30.703 17.3031 30.7456 16.3431C30.8096 15.3831 30.863 14.4871 30.9056 13.6551C30.9696 12.8231 31.023 12.1085 31.0656 11.5111L26.9376 23.4791H24.6976L20.5056 11.5111C20.5696 12.1085 20.623 12.8125 20.6656 13.6231C20.7296 14.4338 20.783 15.3191 20.8256 16.2791C20.8683 17.2178 20.9003 18.1778 20.9216 19.1591C20.9643 20.1405 20.9856 21.0791 20.9856 21.9751V33.8151H18.9376ZM39.0211 33.8151V31.8951H43.9171V12.3751H39.0211V10.4231H50.9251V12.3751H46.0611V31.8951H50.9251V33.8151H39.0211ZM57.8566 33.8151V10.4231H59.9686V20.7911H64.2886L69.4726 10.4231H71.7766L66.1446 21.6551L72.0966 33.8151H69.6326L64.2246 22.6471H59.9686V33.8151H57.8566ZM77.3321 33.8151V10.4551H90.1961V12.3751H79.4441V20.6631H89.0761V22.5831H79.4441V31.8951H90.1961V33.8151H77.3321ZM98.5356 18.9351L101 8.98314H104.392L100.328 18.9351H98.5356ZM121.883 34.1351C120.411 34.1351 119.131 33.8791 118.043 33.3671C116.976 32.8551 116.144 32.1298 115.547 31.1911C114.971 30.2311 114.683 29.1111 114.683 27.8311H116.795C116.795 29.1751 117.254 30.2525 118.171 31.0631C119.088 31.8525 120.326 32.2471 121.883 32.2471C123.376 32.2471 124.539 31.8738 125.371 31.1271C126.224 30.3805 126.651 29.3458 126.651 28.0231C126.651 26.8925 126.342 25.9111 125.723 25.0791C125.104 24.2471 124.24 23.6711 123.131 23.3511L120.251 22.4551C118.694 21.9858 117.478 21.1965 116.603 20.0871C115.75 18.9565 115.323 17.6231 115.323 16.0871C115.323 14.8711 115.59 13.8258 116.123 12.9511C116.656 12.0551 117.414 11.3618 118.395 10.8711C119.398 10.3805 120.571 10.1351 121.915 10.1351C123.92 10.1351 125.51 10.6898 126.683 11.7991C127.856 12.9085 128.454 14.4125 128.475 16.3111H126.363C126.363 14.9885 125.958 13.9431 125.147 13.1751C124.336 12.4071 123.248 12.0231 121.883 12.0231C120.496 12.0231 119.408 12.3645 118.619 13.0471C117.83 13.7298 117.435 14.6898 117.435 15.9271C117.435 16.9938 117.734 17.9325 118.331 18.7431C118.928 19.5325 119.76 20.0978 120.827 20.4391L123.707 21.3351C125.286 21.8258 126.523 22.6578 127.419 23.8311C128.315 25.0045 128.763 26.3698 128.763 27.9271C128.763 29.1858 128.475 30.2845 127.899 31.2231C127.344 32.1405 126.544 32.8551 125.499 33.3671C124.475 33.8791 123.27 34.1351 121.883 34.1351ZM153.794 33.8151V10.4551H155.906V20.7591H164.29V10.4551H166.402V33.8151H164.29V22.6791H155.906V33.8151H153.794ZM179.286 34.1351C177.963 34.1351 176.811 33.8791 175.83 33.3671C174.87 32.8338 174.123 32.0765 173.59 31.0951C173.078 30.1138 172.822 28.9511 172.822 27.6071V16.6631C172.822 15.3191 173.078 14.1671 173.59 13.2071C174.123 12.2258 174.87 11.4685 175.83 10.9351C176.811 10.4018 177.963 10.1351 179.286 10.1351C180.608 10.1351 181.75 10.4018 182.71 10.9351C183.691 11.4685 184.438 12.2258 184.95 13.2071C185.483 14.1671 185.75 15.3191 185.75 16.6631V27.6071C185.75 28.9511 185.483 30.1138 184.95 31.0951C184.438 32.0765 183.691 32.8338 182.71 33.3671C181.75 33.8791 180.608 34.1351 179.286 34.1351ZM179.286 32.2471C180.672 32.2471 181.739 31.8418 182.486 31.0311C183.254 30.2205 183.638 29.0791 183.638 27.6071V16.6631C183.638 15.1911 183.254 14.0498 182.486 13.2391C181.718 12.4285 180.651 12.0231 179.286 12.0231C177.92 12.0231 176.854 12.4285 176.086 13.2391C175.318 14.0498 174.934 15.1911 174.934 16.6631V27.6071C174.934 29.0791 175.307 30.2205 176.054 31.0311C176.822 31.8418 177.899 32.2471 179.286 32.2471ZM197.449 33.8151V12.3751H190.729V10.4551H206.217V12.3751H199.561V33.8151H197.449ZM211.645 33.8151V10.4551H224.509V12.3751H213.757V20.6631H223.389V22.5831H213.757V31.8951H224.509V33.8151H211.645ZM231.024 33.8151V10.4551H233.136V31.8951H244.176V33.8151H231.024Z" fill="black"/>
<rect x="0.25" y="10.7651" width="14.5" height="22.8" stroke="black" stroke-width="0.5"/>
<path d="M1.75 12.6772H13.25V16.1772H1.75V12.6772Z" fill="#C0392B"/>
<path d="M4.758 15.4272V13.2372H5.034L5.307 14.0232C5.327 14.0752 5.346 14.1302 5.364 14.1882C5.382 14.2442 5.396 14.2892 5.406 14.3232C5.416 14.2892 5.43 14.2442 5.448 14.1882C5.466 14.1302 5.483 14.0752 5.499 14.0232L5.769 13.2372H6.042V15.4272H5.85V14.3172C5.85 14.2372 5.851 14.1522 5.853 14.0622C5.857 13.9702 5.861 13.8792 5.865 13.7892C5.871 13.6992 5.876 13.6152 5.88 13.5372C5.886 13.4592 5.891 13.3922 5.895 13.3362L5.508 14.4582H5.298L4.905 13.3362C4.911 13.3922 4.916 13.4582 4.92 13.5342C4.926 13.6102 4.931 13.6932 4.935 13.7832C4.939 13.8712 4.942 13.9612 4.944 14.0532C4.948 14.1452 4.95 14.2332 4.95 14.3172V15.4272H4.758ZM8.10783 15.4272V13.2372H8.30583V14.2032H9.09183V13.2372H9.28983V15.4272H9.09183V14.3832H8.30583V15.4272H8.10783Z" fill="black"/>
<rect x="4.92449" y="25.6045" width="5.15104" height="8.11062" stroke="black" stroke-width="0.2"/>
</svg>
